<svg width="512" height="512" viewBox="0 0 512 512" fill="none" xmlns="http://www.w3.org/2000/svg">
<path d="M261.115 485.494C316.463 460.551 358.316 427.68 386.33 387.048C414.346 346.412 428.5 298.044 428.5 242.145V113.054C428.5 109.502 427.408 106.06 425.409 103.36C423.41 100.659 420.631 98.8742 417.572 98.3605L417.572 98.3604C362.433 89.18 309.786 65.4703 263.596 29.0098L263.594 29.0079C261.501 27.377 259.033 26.5 256.5 26.5C253.967 26.5 251.499 27.377 249.406 29.0079L249.404 29.0098C203.221 65.4662 150.583 89.1757 95.4533 98.3603M261.115 485.494L260.913 485.045L261.116 485.494C261.116 485.494 261.116 485.494 261.115 485.494ZM261.115 485.494C258.147 486.835 254.853 486.835 251.885 485.494M251.885 485.494L252.09 485.038M251.885 485.494C251.884 485.494 251.884 485.494 251.884 485.494L252.09 485.038M251.885 485.494C196.549 460.551 154.696 427.673 126.679 387.037C98.6603 346.398 84.5 298.03 84.5 242.145V113.054C84.5005 109.498 85.5968 106.052 87.6005 103.351C89.6052 100.649 92.3901 98.8674 95.4533 98.3603M252.09 485.038C254.928 486.321 258.072 486.321 260.91 485.038C371.479 435.209 428 353.766 428 242.145V113.054C428 109.602 426.938 106.266 425.007 103.658C423.077 101.049 420.407 99.3437 417.489 98.8536C362.264 89.6586 309.539 65.9121 263.287 29.4023C261.276 27.8358 258.915 27 256.5 27C254.085 27 251.724 27.8358 249.713 29.4023C203.468 65.9081 150.752 89.6544 95.535 98.8536C92.6126 99.3374 89.9376 101.04 88.0021 103.649C86.0665 106.258 85.0004 109.598 85 113.054V242.145C85 353.738 141.546 435.209 252.09 485.038ZM95.4533 98.3603C95.4532 98.3603 95.453 98.3604 95.4528 98.3604L95.5349 98.8531L95.4533 98.3603Z" fill="url(#paint0_radial_343_2)" stroke="black"/>
<defs>
<radialGradient id="paint0_radial_343_2" cx="0" cy="0" r="1" gradientUnits="userSpaceOnUse" gradientTransform="translate(-49.75 -231.191) rotate(59.3608) scale(1033.59 846.819)">
<stop offset="0.18" stop-color="#003AA5"/>
<stop offset="0.529" stop-color="#0040B1"/>
<stop offset="0.680388" stop-color="#2346D1"/>
</radialGradient>
</defs>
</svg>
