<svg width="1618" height="334" viewBox="0 0 1618 334" fill="none" xmlns="http://www.w3.org/2000/svg">
<rect width="1618" height="334" rx="40" fill="#192330"/>
<rect x="0.5" y="0.5" width="1617" height="333" rx="39.5" stroke="#286CFF" stroke-opacity="0.79"/>
<path d="M137 41.8912C164.335 61.6276 195.156 74.8536 227.5 80.641V150.788C227.5 180.295 219.684 205.205 204.609 225.984C189.821 246.366 167.505 263.513 137 276.934C106.503 263.513 84.1865 246.362 69.3967 225.978C54.3184 205.195 46.5 180.285 46.5 150.788V80.6432C78.8441 74.8551 109.666 61.6284 137 41.8912Z" stroke="url(#paint0_linear_343_50)" stroke-width="25"/>
<path d="M363.032 70.25C377.699 70.25 388.607 73.7333 395.757 80.7C403.09 87.4833 406.757 96.8333 406.757 108.75V125.25C406.757 140.833 400.249 150.825 387.232 155.225C402.082 159.258 409.507 169.433 409.507 185.75V210.5C409.507 222.417 405.932 231.858 398.782 238.825C391.632 245.608 380.632 249 365.782 249H321.507V70.25H363.032ZM387.507 108.75C387.507 103.433 385.399 98.4833 381.182 93.9C377.149 89.1333 371.099 86.75 363.032 86.75H340.757V148.625H363.032C371.282 148.625 377.424 146.15 381.457 141.2C385.49 136.067 387.507 130.75 387.507 125.25V108.75ZM390.257 185.75C390.257 180.433 388.149 175.208 383.932 170.075C379.899 164.942 373.849 162.375 365.782 162.375H340.757V232.5H365.782C374.032 232.5 380.174 230.208 384.207 225.625C388.24 221.042 390.257 216 390.257 210.5V185.75ZM468.6 70.25H487.85V232.5H538.175V249H468.6V70.25ZM668.813 214.625C668.813 226.542 664.963 235.983 657.263 242.95C649.746 249.733 638.104 253.125 622.338 253.125C606.571 253.125 594.746 249.733 586.863 242.95C579.163 235.983 575.313 226.542 575.313 214.625V104.625C575.313 92.7083 579.071 83.3583 586.588 76.575C594.288 69.6083 606.021 66.125 621.788 66.125C637.554 66.125 649.288 69.6083 656.988 76.575C664.871 83.3583 668.813 92.7083 668.813 104.625V214.625ZM649.563 104.625C649.563 97.6583 647.271 92.25 642.688 88.4C638.104 84.55 631.138 82.625 621.788 82.625C612.621 82.625 605.746 84.55 601.163 88.4C596.763 92.25 594.563 97.6583 594.563 104.625V214.625C594.563 221.408 596.854 226.817 601.438 230.85C606.021 234.7 612.988 236.625 622.338 236.625C631.504 236.625 638.288 234.7 642.688 230.85C647.271 226.817 649.563 221.408 649.563 214.625V104.625ZM795.248 199.5H814.498V214.625C814.498 226.542 810.831 235.983 803.498 242.95C796.165 249.733 784.798 253.125 769.398 253.125C753.998 253.125 742.54 249.733 735.023 242.95C727.506 235.983 723.748 226.542 723.748 214.625V104.625C723.748 92.7083 727.415 83.3583 734.748 76.575C742.081 69.6083 753.448 66.125 768.848 66.125C784.248 66.125 795.706 69.6083 803.223 76.575C810.74 83.3583 814.498 92.7083 814.498 104.625V130.75H795.248V104.625C795.248 97.6583 793.048 92.25 788.648 88.4C784.431 84.55 777.831 82.625 768.848 82.625C760.048 82.625 753.54 84.55 749.323 88.4C745.106 92.25 742.998 97.6583 742.998 104.625V214.625C742.998 221.408 745.106 226.817 749.323 230.85C753.723 234.7 760.415 236.625 769.398 236.625C778.198 236.625 784.706 234.7 788.923 230.85C793.14 226.817 795.248 221.408 795.248 214.625V199.5ZM871.213 249V70.25H890.463V146.15L938.313 70.25H959.763L911.088 147.25L963.063 249H941.888L899.538 165.675L890.463 180.25V249H871.213ZM1075.96 249V70.25H1095.21V150H1149.39V70.25H1168.64V249H1149.39V166.5H1095.21V249H1075.96ZM1229.17 70.25H1248.42V214.625C1248.42 220.858 1249.79 226.083 1252.54 230.3C1255.29 234.517 1260.88 236.625 1269.32 236.625C1275.18 236.625 1280.59 235.158 1285.54 232.225C1290.49 229.108 1294.43 225.442 1297.37 221.225C1300.48 216.825 1302.04 212.792 1302.04 209.125V70.25H1321.29V249H1313.04L1305.89 231.4C1302.04 237.633 1296.91 242.858 1290.49 247.075C1284.26 251.108 1277.29 253.125 1269.59 253.125C1259.69 253.125 1251.72 251.475 1245.67 248.175C1239.8 244.692 1235.58 240.017 1233.02 234.15C1230.45 228.283 1229.17 221.775 1229.17 214.625V70.25ZM1426.18 70.25C1440.84 70.25 1451.75 73.7333 1458.9 80.7C1466.23 87.4833 1469.9 96.8333 1469.9 108.75V125.25C1469.9 140.833 1463.39 150.825 1450.38 155.225C1465.23 159.258 1472.65 169.433 1472.65 185.75V210.5C1472.65 222.417 1469.08 231.858 1461.93 238.825C1454.78 245.608 1443.78 249 1428.93 249H1384.65V70.25H1426.18ZM1450.65 108.75C1450.65 101.967 1448.54 96.65 1444.33 92.8C1440.29 88.7667 1434.24 86.75 1426.18 86.75H1403.9V148.625H1426.18C1434.43 148.625 1440.57 146.425 1444.6 142.025C1448.63 137.625 1450.65 132.033 1450.65 125.25V108.75ZM1453.4 185.75C1453.4 178.967 1451.29 173.375 1447.08 168.975C1443.04 164.575 1436.99 162.375 1428.93 162.375H1403.9V232.5H1428.93C1437.18 232.5 1443.32 230.575 1447.35 226.725C1451.38 222.692 1453.4 217.283 1453.4 210.5V185.75Z" fill="url(#paint1_linear_343_50)"/>
<defs>
<linearGradient id="paint0_linear_343_50" x1="137" y1="28" x2="137" y2="289.96" gradientUnits="userSpaceOnUse">
<stop stop-color="#EF8011"/>
<stop offset="1" stop-color="#FFA953"/>
</linearGradient>
<linearGradient id="paint1_linear_343_50" x1="778.5" y1="-36.5" x2="778.5" y2="281" gradientUnits="userSpaceOnUse">
<stop offset="0.10432" stop-color="#DCDCDC"/>
<stop offset="0.777426" stop-color="#9CB2CB"/>
</linearGradient>
</defs>
</svg>
