<svg xmlns="http://www.w3.org/2000/svg" version="1.1" xmlns:xlink="http://www.w3.org/1999/xlink" xmlns:svgjs="http://svgjs.dev/svgjs" width="1000" height="1000"><style>
    #light-icon {
      display: inline;
    }
    #dark-icon {
      display: none;
    }

    @media (prefers-color-scheme: dark) {
      #light-icon {
        display: none;
      }
      #dark-icon {
        display: inline;
      }
    }
  </style><g id="light-icon"><svg xmlns="http://www.w3.org/2000/svg" version="1.1" xmlns:xlink="http://www.w3.org/1999/xlink" xmlns:svgjs="http://svgjs.dev/svgjs" width="1000" height="1000"><g clip-path="url(#SvgjsClipPath3418)"><rect width="1000" height="1000" fill="#ffffff"></rect><g transform="matrix(3.816793893129771,0,0,3.816793893129771,106.87022900763355,0)"><svg xmlns="http://www.w3.org/2000/svg" version="1.1" xmlns:xlink="http://www.w3.org/1999/xlink" xmlns:svgjs="http://svgjs.dev/svgjs" width="206" height="262"><svg width="206" height="262" viewBox="0 0 206 262" fill="none" xmlns="http://www.w3.org/2000/svg">
<path d="M103 13.8912C130.335 33.6276 161.156 46.8536 193.5 52.641V122.788C193.5 152.295 185.684 177.205 170.609 197.984C155.821 218.366 133.505 235.513 103 248.934C72.5033 235.513 50.1865 218.362 35.3967 197.978C20.3184 177.195 12.5 152.285 12.5 122.788V52.6432C44.8441 46.8551 75.6657 33.6284 103 13.8912Z" stroke="#F97316" stroke-width="25"></path>
</svg></svg></g></g><defs><clipPath id="SvgjsClipPath3418"><rect width="1000" height="1000" x="0" y="0" rx="500" ry="500"></rect></clipPath></defs></svg></g><g id="dark-icon"><svg xmlns="http://www.w3.org/2000/svg" version="1.1" xmlns:xlink="http://www.w3.org/1999/xlink" xmlns:svgjs="http://svgjs.dev/svgjs" width="1000" height="1000"><g><g transform="matrix(3.816793893129771,0,0,3.816793893129771,106.87022900763355,0)"><svg xmlns="http://www.w3.org/2000/svg" version="1.1" xmlns:xlink="http://www.w3.org/1999/xlink" xmlns:svgjs="http://svgjs.dev/svgjs" width="206" height="262"><svg width="206" height="262" viewBox="0 0 206 262" fill="none" xmlns="http://www.w3.org/2000/svg">
<path d="M103 13.8912C130.335 33.6276 161.156 46.8536 193.5 52.641V122.788C193.5 152.295 185.684 177.205 170.609 197.984C155.821 218.366 133.505 235.513 103 248.934C72.5033 235.513 50.1865 218.362 35.3967 197.978C20.3184 177.195 12.5 152.285 12.5 122.788V52.6432C44.8441 46.8551 75.6657 33.6284 103 13.8912Z" stroke="#F97316" stroke-width="25"></path>
</svg></svg></g></g></svg></g></svg>